{"title":"Gangster.No.1.2000.Limited.720p.BRRIP.XviD.AC3(Mur4lok)","uid":7149748,"size":2955254961,"categoryP":"video","categoryS":"hd___movies","magnet":"?xt=urn:btih:09384b80c29afee684b3566d13a85fb35fc70427&amp;dn=Gangster.No.1.2000.Limited.720p.BRRIP.XviD.AC3%28Mur4lok%29&amp;tr=udp%3A%2F%2Ftracker.openbittorrent.com%3A80&amp;tr=udp%3A%2F%2Fopen.demonii.com%3A1337&amp;tr=udp%3A%2F%2Ftracker.coppersurfer.tk%3A6969&amp;tr=udp%3A%2F%2Fexodus.desync.com%3A6969","seeders":1,"leechers":0,"uploader":"Murlok","files":-1,"time":1333272453,"description":"Gangster.No.1.2000.Limited.720p.BRRIP.XviD.AC3-Merge\n\n\nVideo\nID                                       : 2\nFormat                                   : MPEG-4 Visual\nFormat profile                           : Advanced Simple@L5\nFormat settings, BVOP                    : Yes\nFormat settings, QPel                    : No\nFormat settings, GMC                     : No warppoints\nFormat settings, Matrix                  : Custom\nCodec ID                                 : XVID\nCodec ID/Hint                            : XviD\nDuration                                 : 1h 42mn\nBit rate                                 : 3 118 Kbps\nWidth                                    : 1 280 pixels\nHeight                                   : 720 pixels\nDisplay aspect ratio                     : 16:9\nFrame rate                               : 23.976 fps\nColor space                              : YUV\nChroma subsampling                       : 4:2:0\nBit depth                                : 8 bits\nScan type                                : Progressive\nCompression mode                         : Lossy\nBits/(Pixel*Frame)                       : 0.141\nStream size                              : 2.24 GiB (81%)\nWriting library                          : XviD 1.2.1 (UTC 2008-12-04)\nDefault                                  : Yes\nForced                                   : No\n\nAudio\nID                                       : 1\nFormat                                   : AC-3\nFormat/Info                              : Audio Coding 3\nMode extension                           : CM (complete main)\nMuxing mode                              : Header stripping\nCodec ID                                 : A_AC3\nDuration                                 : 1h 42mn\nBit rate mode                            : Constant\nBit rate                                 : 640 Kbps\nChannel(s)                               : 6 channels\nChannel positions                        : Front: L C R, Side: L R, LFE\nSampling rate                            : 48.0 KHz\nBit depth                                : 16 bits\nCompression mode                         : Lossy\nStream size                              : 470 MiB (17%)\nDefault                                  : Yes\nForced                                   : No\n\n\n\n\n\n\n[imgw]http://i.imgur.com/SGupF.png[/imgw]\n[imgw]http://i.imgur.com/bFbbz.jpg[/imgw]\n[imgw]http://i.imgur.com/tknR4.jpg[/imgw]\n\n\n\n\nSource:limited.720p.bluray.x264-hv\n\nimdb : http://www.imdb.com/title/tt0210065/\n\n\nGreetz to my Baby OFO :D\n\n\nEnjoy","torrent":{"xt":"urn:btih:09384b80c29afee684b3566d13a85fb35fc70427","amp;dn":"Gangster.No.1.2000.Limited.720p.BRRIP.XviD.AC3%28Mur4lok%29","amp;tr":["udp%3A%2F%2Ftracker.openbittorrent.com%3A80","udp%3A%2F%2Fopen.demonii.com%3A1337","udp%3A%2F%2Ftracker.coppersurfer.tk%3A6969","udp%3A%2F%2Fexodus.desync.com%3A6969"],"infoHash":"09384b80c29afee684b3566d13a85fb35fc70427","infoHashBuffer":{"type":"Buffer","data":[9,56,75,128,194,154,254,230,132,179,86,109,19,168,95,179,95,199,4,39]},"announce":[],"urlList":[]}}